<?xml version="1.0" encoding="UTF-8"?>
<svg xmlns="http://www.w3.org/2000/svg" xmlns:xlink="http://www.w3.org/1999/xlink" width="375pt" height="374.999991pt" viewBox="0 0 375 374.999991" version="1.2">
<defs>
<clipPath id="clip1">
  <path d="M 83 37.5 L 300 37.5 L 300 328.5 L 83 328.5 Z M 83 37.5 "/>
</clipPath>
<clipPath id="clip2">
  <path d="M 216 99 L 240.730469 99 L 240.730469 132 L 216 132 Z M 216 99 "/>
</clipPath>
</defs>
<g id="surface1">
<g clip-path="url(#clip1)" clip-rule="nonzero">
<path style=" stroke:none;fill-rule:nonzero;fill:rgb(0%,0%,0%);fill-opacity:1;" d="M 299.640625 325.519531 C 292.601562 312.03125 285.773438 298.425781 279.003906 284.792969 C 270.933594 268.5625 261.289062 250.78125 260.617188 232.179688 C 260.550781 230.488281 260.429688 226.996094 260.304688 226.894531 C 260.3125 220.050781 260.210938 213.019531 257.777344 206.414062 C 255.179688 199.347656 249.125 194.359375 243.652344 190.230469 C 237.195312 185.355469 230.015625 181.207031 222.890625 178.222656 C 219.269531 176.703125 215.449219 175.53125 211.757812 174.394531 L 210.132812 173.894531 C 207.902344 173.203125 206.054688 172.617188 204.304688 172.03125 C 202.40625 171.40625 200.234375 170.636719 200 170.480469 L 199.839844 170.363281 L 199.667969 170.253906 L 199.570312 170.203125 C 181.566406 163.664062 166.75 154.371094 155.539062 142.582031 C 144.988281 131.484375 134.980469 113.621094 138.535156 96.761719 C 141.242188 83.941406 151.917969 72.488281 165.105469 68.253906 C 167.929688 67.34375 170.824219 66.886719 173.703125 66.886719 C 177.296875 66.886719 180.722656 67.59375 183.875 68.996094 C 190.324219 71.863281 195.371094 77.964844 198.882812 87.140625 C 199.058594 87.59375 199.476562 87.878906 199.976562 87.878906 L 200.070312 87.878906 C 200.566406 87.878906 200.988281 87.59375 201.160156 87.140625 C 204.671875 77.964844 209.722656 71.863281 216.167969 68.996094 C 219.324219 67.59375 222.75 66.886719 226.339844 66.886719 C 229.21875 66.886719 232.117188 67.34375 234.945312 68.253906 C 248.125 72.488281 258.800781 83.941406 261.503906 96.761719 C 265.0625 113.621094 255.0625 131.484375 244.507812 142.582031 C 241.484375 145.761719 230.820312 153.621094 225.695312 157.394531 C 224.753906 158.085938 224.011719 158.636719 223.546875 158.988281 C 221.339844 160.636719 219.003906 162.199219 216.742188 163.703125 C 214.773438 165.015625 191.511719 177.90625 189.5625 179.320312 C 189.148438 179.621094 188.980469 180.144531 189.144531 180.636719 C 189.300781 181.117188 189.703125 181.4375 190.148438 181.4375 C 190.363281 181.4375 190.578125 181.363281 190.773438 181.226562 C 192.941406 179.644531 216.449219 166.59375 218.640625 165.121094 C 219.984375 164.21875 221.332031 163.3125 222.667969 162.386719 C 222.988281 162.167969 223.511719 161.835938 224.203125 161.394531 C 244.054688 148.757812 256.335938 135.332031 260.707031 121.507812 C 266.113281 104.4375 265.167969 93.105469 257.46875 82.382812 C 249.871094 71.789062 238.367188 64.996094 227.441406 64.636719 C 227.117188 64.628906 226.796875 64.621094 226.484375 64.621094 C 214.96875 64.621094 205.597656 71.503906 200.023438 84.019531 C 194.449219 71.503906 185.078125 64.621094 173.558594 64.621094 C 173.246094 64.621094 172.925781 64.628906 172.601562 64.636719 C 161.679688 64.996094 150.175781 71.789062 142.574219 82.382812 C 134.824219 93.171875 133.707031 106.707031 139.339844 121.53125 C 144.601562 135.371094 155.207031 147.761719 170.863281 158.363281 C 178.679688 163.652344 187.796875 168.242188 197.980469 172.011719 C 198.425781 172.46875 200.433594 173.246094 209.035156 175.921875 L 209.503906 176.066406 C 219.527344 179.179688 227.007812 182.347656 233.75 186.34375 C 240.984375 190.621094 249.019531 195.996094 253.777344 203.367188 C 258.132812 210.136719 258.09375 218.9375 258.054688 226.707031 L 258.054688 227.632812 C 257.945312 229.136719 257.902344 230.660156 257.941406 232.179688 C 258.382812 248.957031 266.46875 265.433594 273.710938 280.128906 C 281.210938 295.328125 288.824219 310.476562 296.636719 325.519531 L 149.507812 325.519531 C 155.292969 318.285156 158.578125 308.546875 160.550781 299.78125 C 162.507812 291.109375 164.015625 280.238281 162.203125 271.46875 C 161.335938 267.261719 157.8125 264.050781 154.078125 262.308594 C 146.617188 258.816406 137.230469 260.871094 129.222656 260 C 121.425781 259.152344 108.425781 256.59375 107.277344 247.007812 C 106.671875 241.949219 106.933594 236.691406 107.492188 231.640625 C 107.742188 229.351562 108.488281 226.789062 107.898438 224.511719 C 106.878906 220.496094 101.289062 220.96875 102.101562 215.535156 C 102.417969 213.414062 106.230469 212.203125 103.46875 210.070312 C 100.898438 208.082031 96.496094 206.695312 99.84375 202.28125 C 101.015625 200.738281 101.671875 198.71875 102.214844 196.878906 C 102.871094 194.664062 103.5 190.457031 100.84375 189.183594 C 96.527344 187.105469 91.46875 188.402344 87.601562 184.933594 C 83.460938 181.207031 87.796875 175.304688 90.007812 171.828125 C 94.417969 164.902344 98.628906 157.828125 102.472656 150.566406 C 103.902344 147.867188 105.277344 145.109375 106.328125 142.234375 C 107.683594 138.515625 106.480469 134.398438 105.65625 130.699219 C 103.890625 122.8125 106.757812 113.925781 108.59375 106.230469 C 109.128906 103.96875 109.632812 101.710938 110.246094 99.46875 C 113.257812 88.523438 118.601562 78.246094 125.925781 69.558594 C 137.992188 55.242188 155.164062 47.027344 173.308594 43.496094 C 180.632812 42.066406 189.929688 41.035156 197.730469 40.53125 L 210.9375 40.265625 C 219.78125 40.554688 228.558594 41.660156 237.066406 43.8125 C 254.023438 48.097656 269.289062 57.515625 279.464844 71.878906 C 291.457031 88.804688 296.324219 112.144531 294.921875 132.566406 C 293.605469 151.726562 283.921875 168.257812 274.683594 184.574219 C 272.871094 187.777344 271.015625 191.066406 269.226562 194.425781 C 269.34375 194.496094 269.460938 194.566406 269.570312 194.632812 C 270.292969 194.191406 271.152344 194.332031 272.011719 194.746094 C 274.386719 190.367188 276.882812 186.117188 279.21875 182.003906 C 288.078125 166.402344 296.078125 150.734375 297.59375 132.566406 C 299.242188 112.859375 294.246094 90.792969 283.960938 73.863281 C 275.625 60.140625 262.652344 50.28125 247.832031 44.449219 C 236.097656 39.832031 223.472656 37.925781 210.832031 37.640625 L 210.832031 37.632812 C 210.832031 37.632812 209.195312 37.535156 208.273438 37.542969 L 208.28125 37.542969 L 208.265625 37.542969 C 208.070312 37.542969 207.910156 37.550781 207.800781 37.5625 L 200.96875 37.851562 C 200.972656 37.816406 200.484375 37.851562 199.925781 37.851562 L 199.851562 37.851562 L 199.800781 37.859375 C 197.375 37.988281 193.136719 38.164062 190.800781 38.375 C 171.125 40.167969 151.644531 44.652344 135.609375 56.742188 C 118.960938 69.300781 110.132812 87.460938 105.605469 107.289062 C 103.945312 114.550781 101.527344 122.5625 102.792969 130.039062 C 103.539062 134.445312 104.996094 138.394531 103.304688 142.703125 C 101.808594 146.515625 99.710938 150.128906 97.730469 153.699219 C 94.066406 160.28125 90.167969 166.765625 86.039062 173.058594 C 81.449219 180.050781 83.152344 187.25 91.328125 189.886719 C 93.605469 190.621094 96.042969 190.675781 98.386719 191.085938 C 101.789062 191.675781 99.390625 197.253906 98.609375 199.039062 C 97.25 202.171875 93.828125 204.914062 96.792969 208.40625 C 97.535156 209.273438 100.691406 212.765625 101.902344 211.324219 C 101.160156 212.203125 100.257812 212.796875 99.84375 213.933594 C 98.488281 217.664062 100.085938 220.707031 102.957031 223.113281 C 105.546875 225.28125 105.539062 226.015625 105.117188 229.269531 C 104.488281 234.082031 104.230469 238.851562 104.394531 243.703125 C 104.664062 251.519531 108.171875 256.496094 115.539062 259.433594 C 123.359375 262.550781 132.042969 263.332031 140.402344 263.183594 C 147.386719 263.0625 156.546875 263.457031 159.367188 271.261719 C 160.453125 274.273438 159.945312 278.132812 159.929688 281.269531 C 159.902344 287.253906 159.207031 293.222656 157.976562 299.070312 C 156.417969 306.457031 153.714844 313.640625 149.84375 320.128906 C 148.726562 322.003906 147.496094 323.914062 146.011719 325.519531 C 145.457031 326.121094 146.011719 328.542969 146.011719 328.542969 L 299.949219 328.542969 L 299.949219 325.519531 L 299.640625 325.519531 "/>
</g>
<path style=" stroke:none;fill-rule:nonzero;fill:rgb(100%,8.628845%,8.628845%);fill-opacity:1;" d="M 174.164062 107.070312 C 173.753906 107.457031 173.023438 108.730469 173.113281 110.078125 C 173.1875 111.148438 173.753906 112.0625 174.792969 112.800781 C 174.972656 112.925781 175.011719 113.167969 174.886719 113.34375 C 174.847656 113.402344 174.792969 113.449219 174.730469 113.476562 C 174.609375 113.53125 174.460938 113.523438 174.339844 113.441406 C 173.117188 112.574219 172.421875 111.429688 172.332031 110.132812 C 172.214844 108.410156 173.15625 106.941406 173.628906 106.5 C 173.789062 106.351562 174.035156 106.359375 174.183594 106.515625 C 174.332031 106.675781 174.324219 106.921875 174.164062 107.070312 Z M 175.90625 114.148438 C 175.722656 114.234375 175.503906 114.152344 175.417969 113.964844 C 175.332031 113.78125 175.414062 113.5625 175.601562 113.476562 C 175.785156 113.390625 176.003906 113.472656 176.089844 113.660156 C 176.175781 113.84375 176.09375 114.0625 175.90625 114.148438 Z M 178.796875 104.988281 C 173.195312 102.90625 168.789062 108.757812 171.867188 112.847656 C 175.324219 117.429688 184.117188 116.597656 185.601562 119.839844 C 184.117188 116.597656 190.492188 110.492188 189.277344 104.886719 C 188.195312 99.882812 180.878906 99.390625 178.796875 104.988281 "/>
<path style=" stroke:none;fill-rule:nonzero;fill:rgb(100%,8.628845%,8.628845%);fill-opacity:1;" d="M 184.011719 87.300781 C 183.761719 87.25 183.089844 87.316406 182.613281 87.710938 C 182.234375 88.019531 182.042969 88.472656 182.046875 89.054688 C 182.046875 89.152344 181.964844 89.234375 181.867188 89.234375 C 181.832031 89.234375 181.800781 89.226562 181.777344 89.210938 C 181.722656 89.179688 181.6875 89.121094 181.6875 89.054688 C 181.683594 88.371094 181.925781 87.808594 182.386719 87.433594 C 182.996094 86.929688 183.792969 86.890625 184.085938 86.949219 C 184.183594 86.96875 184.246094 87.066406 184.222656 87.160156 C 184.203125 87.257812 184.109375 87.320312 184.011719 87.300781 Z M 181.839844 89.828125 C 181.757812 89.78125 181.730469 89.675781 181.777344 89.597656 C 181.824219 89.515625 181.925781 89.488281 182.007812 89.535156 C 182.085938 89.582031 182.113281 89.683594 182.070312 89.765625 C 182.023438 89.84375 181.917969 89.875 181.839844 89.828125 Z M 186.019531 88.46875 C 185.308594 85.835938 181.957031 85.75 181.25 87.980469 C 180.460938 90.480469 183.101562 93.527344 182.289062 94.941406 C 183.101562 93.527344 187.070312 94.28125 188.835938 92.34375 C 190.410156 90.613281 188.65625 87.761719 186.019531 88.46875 "/>
<path style=" stroke:none;fill-rule:nonzero;fill:rgb(100%,8.628845%,8.628845%);fill-opacity:1;" d="M 188.320312 133.78125 C 187.710938 133.78125 187.101562 133.832031 186.511719 133.933594 C 181.339844 134.808594 177.585938 139.257812 177.585938 144.503906 C 177.585938 145.097656 177.105469 145.582031 176.507812 145.582031 C 175.914062 145.582031 175.433594 145.097656 175.433594 144.503906 C 175.433594 138.203125 179.9375 132.863281 186.148438 131.808594 C 186.859375 131.6875 187.589844 131.628906 188.320312 131.628906 C 188.917969 131.628906 189.398438 132.109375 189.398438 132.703125 C 189.398438 133.296875 188.917969 133.78125 188.320312 133.78125 Z M 176.992188 149.210938 C 176.378906 149.210938 175.882812 148.714844 175.882812 148.105469 C 175.882812 147.492188 176.378906 146.996094 176.992188 146.996094 C 177.605469 146.996094 178.101562 147.492188 178.101562 148.105469 C 178.101562 148.714844 177.605469 149.210938 176.992188 149.210938 Z M 223.148438 105.480469 L 199.515625 90.6875 L 199.515625 134.046875 C 196.714844 131.101562 192.765625 129.257812 188.378906 129.257812 C 179.882812 129.257812 172.996094 136.140625 172.996094 144.628906 C 172.996094 153.117188 179.882812 159.996094 188.378906 159.996094 C 196.875 159.996094 203.761719 153.117188 203.761719 144.628906 C 203.761719 144.226562 203.734375 143.832031 203.703125 143.4375 L 203.703125 98.242188 L 220.925781 109.023438 C 221.90625 109.636719 223.199219 109.339844 223.8125 108.363281 C 224.425781 107.382812 224.128906 106.09375 223.148438 105.480469 "/>
<g clip-path="url(#clip2)" clip-rule="nonzero">
<path style=" stroke:none;fill-rule:nonzero;fill:rgb(100%,8.628845%,8.628845%);fill-opacity:1;" d="M 223.996094 119.8125 C 223.714844 119.8125 223.433594 119.835938 223.160156 119.882812 C 220.773438 120.289062 219.039062 122.339844 219.039062 124.765625 C 219.039062 125.039062 218.816406 125.261719 218.542969 125.261719 C 218.265625 125.261719 218.042969 125.039062 218.042969 124.765625 C 218.042969 121.855469 220.125 119.390625 222.992188 118.902344 C 223.320312 118.847656 223.660156 118.820312 223.996094 118.820312 C 224.269531 118.820312 224.492188 119.039062 224.492188 119.316406 C 224.492188 119.589844 224.269531 119.8125 223.996094 119.8125 Z M 218.765625 126.9375 C 218.480469 126.9375 218.253906 126.710938 218.253906 126.425781 C 218.253906 126.144531 218.480469 125.917969 218.765625 125.917969 C 219.046875 125.917969 219.277344 126.144531 219.277344 126.425781 C 219.277344 126.710938 219.046875 126.9375 218.765625 126.9375 Z M 240.082031 106.742188 L 229.167969 99.910156 L 229.167969 119.933594 C 227.871094 118.574219 226.050781 117.726562 224.023438 117.726562 C 220.101562 117.726562 216.921875 120.902344 216.921875 124.820312 C 216.921875 128.742188 220.101562 131.917969 224.023438 131.917969 C 227.945312 131.917969 231.128906 128.742188 231.128906 124.820312 C 231.128906 124.636719 231.113281 124.453125 231.101562 124.273438 L 231.101562 103.402344 L 239.054688 108.378906 C 239.507812 108.664062 240.101562 108.523438 240.386719 108.074219 C 240.671875 107.621094 240.53125 107.027344 240.082031 106.742188 "/>
</g>
</g>
</svg>
